<?xml version="1.0" encoding="UTF-8" standalone="no"?>
<svg
   xmlns:dc="http://purl.org/dc/elements/1.1/"
   xmlns:cc="http://creativecommons.org/ns#"
   xmlns:rdf="http://www.w3.org/1999/02/22-rdf-syntax-ns#"
   xmlns:svg="http://www.w3.org/2000/svg"
   xmlns="http://www.w3.org/2000/svg"
   xmlns:sodipodi="http://sodipodi.sourceforge.net/DTD/sodipodi-0.dtd"
   xmlns:inkscape="http://www.inkscape.org/namespaces/inkscape"
   width="87.5mm"
   height="100mm"
   viewBox="0 0 87.5 100"
   version="1.1"
   id="svg16"
   inkscape:version="1.0.1 (c497b03c, 2020-09-10)"
   sodipodi:docname="payhere.svg">
  <defs
     id="defs10" />
  <sodipodi:namedview
     id="base"
     pagecolor="#ffffff"
     bordercolor="#666666"
     borderopacity="1.0"
     inkscape:pageopacity="0.0"
     inkscape:pageshadow="2"
     inkscape:zoom="1.1914915"
     inkscape:cx="214.07671"
     inkscape:cy="183.1903"
     inkscape:document-units="mm"
     inkscape:current-layer="layer1"
     inkscape:document-rotation="0"
     showgrid="false"
     inkscape:window-width="1252"
     inkscape:window-height="818"
     inkscape:window-x="0"
     inkscape:window-y="23"
     inkscape:window-maximized="0"
     showguides="false"
     inkscape:guide-bbox="true"
     inkscape:snap-intersection-paths="true"
     inkscape:object-paths="true"
     inkscape:snap-bbox="true"
     inkscape:bbox-nodes="true"
     inkscape:snap-global="true"
     inkscape:bbox-paths="false"
     inkscape:snap-bbox-edge-midpoints="true"
     inkscape:snap-bbox-midpoints="true"
     inkscape:snap-smooth-nodes="true"
     inkscape:object-nodes="true"
     inkscape:snap-nodes="true">
    <sodipodi:guide
       position="80.810381,48.176963"
       orientation="0,-1"
       id="guide316" />
    <sodipodi:guide
       position="68.22745,56.658791"
       orientation="1,0"
       id="guide318" />
    <sodipodi:guide
       position="84.891413,53.071019"
       orientation="0,-1"
       id="guide320" />
    <sodipodi:guide
       position="77.625255,70.906291"
       orientation="1,0"
       id="guide322" />
    <sodipodi:guide
       position="73.878202,69.501146"
       orientation="0,-1"
       id="guide324" />
    <sodipodi:guide
       position="76.25614,65.159608"
       orientation="1,0"
       id="guide326" />
    <sodipodi:guide
       position="75.319376,61.844907"
       orientation="0,-1"
       id="guide328" />
    <sodipodi:guide
       position="89.900892,60.124139"
       orientation="0,-1"
       id="guide330" />
    <sodipodi:guide
       position="85.431797,55.164885"
       orientation="0,-1"
       id="guide332" />
    <sodipodi:guide
       position="82.776715,54.293175"
       orientation="1,0"
       id="guide334" />
    <sodipodi:guide
       position="87.923682,57.504531"
       orientation="1,0"
       id="guide336" />
    <sodipodi:guide
       position="83.597884,60.124139"
       orientation="1,0"
       id="guide338" />
    <sodipodi:guide
       position="81.050781,57.735736"
       orientation="1,0"
       id="guide340" />
    <sodipodi:guide
       position="88.891488,60.124139"
       orientation="1,0"
       id="guide342" />
    <sodipodi:guide
       position="91.503482,60.853488"
       orientation="1,0"
       id="guide344" />
    <sodipodi:guide
       position="75.449812,58.412063"
       orientation="1,0"
       id="guide346" />
    <sodipodi:guide
       position="77.625255,56.933247"
       orientation="0,-1"
       id="guide348" />
    <sodipodi:guide
       position="87.705999,60.663141"
       orientation="0,-1"
       id="guide1243" />
  </sodipodi:namedview>
  <metadata
     id="metadata13">
    <rdf:RDF>
      <cc:Work
         rdf:about="">
        <dc:format>image/svg+xml</dc:format>
        <dc:type
           rdf:resource="http://purl.org/dc/dcmitype/StillImage" />
        <dc:title></dc:title>
      </cc:Work>
    </rdf:RDF>
  </metadata>
  <g
     inkscape:label="Layer 1"
     inkscape:groupmode="layer"
     id="layer1">
    <g
       id="g1415"
       transform="matrix(3.69472,0,0,3.69472,-250.59795,-92.863)"
       style="fill:#999999">
      <g
         id="g355"
         style="fill:#999999">
        <g
           id="g351"
           style="fill:#999999">
          <path
             id="path314"
             style="fill:#999999;stroke-width:1.33333"
             d="m 303.94336,96.298828 c -3.96884,-0.01685 -8.24211,0.240501 -13.49219,0.771484 -7.82542,0.791449 -14.65916,1.931397 -15.18555,2.533204 -0.52638,0.601804 -4.40734,20.895704 -8.625,45.095704 -4.21765,24.2 -8.87272,51.43743 -8.85156,51.42383 0.19189,-0.12216 -0.22199,-0.0918 10.4668,-0.0918 9.98798,0 11.14258,-0.16797 11.14258,-0.16797 0,0 2.00293,-11.98138 3.29101,-19.49805 l 2.625,-13.49804 c 4.44665,-0.008 9.93941,-0.39186 14.34197,-0.78229 l 2.92628,-13.41016 c 0,0 8.35774,-0.0136 12.33905,0 -0.65112,3.79513 -1.32673,7.58561 -1.97657,11.38085 6.29998,-1.48226 13.41645,-3.78628 18.4615,-7.74246 0.24655,-1.19919 0.49469,-2.39826 0.74023,-3.59766 1.06186,-0.001 1.37912,0.0316 2.44098,0.0306 0.034,-0.0362 0.0696,-0.0691 0.10352,-0.10547 3.84094,-4.00875 6.49678,-8.38099 7.84179,-12.91015 1.11863,-3.76684 2.03516,-10.25171 2.03516,-14.41016 0,-5.61189 -0.77383,-8.7291 -3.00195,-12.09179 -1.65106,-2.49179 -5.70724,-5.87453 -9.01368,-7.51758 -3.30643,-1.64306 -10.93141,-3.683005 -16.94335,-4.533206 -4.03343,-0.570395 -7.69718,-0.862056 -11.66602,-0.878906 z m -10.55469,18.968752 10.8711,0.14453 c 7.39656,-0.14506 23.0424,-0.1451 16.64257,16.59766 -1.92242,5.23608 -6.28522,8.56797 -8.75586,9.43164 -3.81732,1.33443 -9.06025,2.76171 -13.69336,2.76171 h -10.23828 l 2.86524,-16.17187 z"
             transform="scale(0.26458333)"
             sodipodi:nodetypes="cssscscccccccccccsssssscccsscccc" />
        </g>
      </g>
      <path
         style="fill:#999999;stroke:none;stroke-width:0.553;stroke-miterlimit:4;stroke-dasharray:none;stroke-opacity:1"
         d="m 80.85541,51.608723 h -2.685465 c 0,0 0.269792,-2.365103 0.811072,-5.070441 l 1.375883,-6.876735 1.25177,-0.0024 1.28028,0.0036 c -0.28433,1.652081 -0.58973,3.300313 -0.8316,4.959181 l 2.71378,-0.0239 2.39023,-0.03007 1.01131,-4.906412 1.27209,-0.0024 1.3399,0.0024 -1.25697,6.964957 -0.93644,4.986784 -1.30965,0.01402 -1.50117,-0.01857 0.94329,-4.88942 -2.54049,-0.0046 -2.48023,-3e-6 z"
         id="path314-7-7"
         sodipodi:nodetypes="ccsccccccccccccccccc" />
    </g>
  </g>
</svg>
